<?xml version="1.0" standalone="no"?>
<!DOCTYPE svg PUBLIC "-//W3C//DTD SVG 20010904//EN"
 "http://www.w3.org/TR/2001/REC-SVG-20010904/DTD/svg10.dtd">
<svg version="1.0" xmlns="http://www.w3.org/2000/svg"
 width="260.000000pt" height="260.000000pt" viewBox="0 0 260.000000 260.000000"
 preserveAspectRatio="xMidYMid meet">
<metadata>
Created by potrace 1.11, written by Peter Selinger 2001-2013
</metadata>
<g transform="translate(0.000000,260.000000) scale(0.100000,-0.100000)"
fill="#000000" stroke="none">
<path d="M0 1300 l0 -1300 1300 0 1300 0 0 1300 0 1300 -1300 0 -1300 0 0
-1300z m883 585 c209 -44 371 -206 433 -435 25 -91 25 -317 0 -415 -48 -188
-159 -337 -306 -409 -282 -138 -622 -52 -777 197 -57 90 -81 153 -99 258 -43
245 26 500 174 648 141 141 364 201 575 156z m1427 5 c36 -6 86 -18 113 -26
l47 -16 0 -63 0 -64 -47 20 c-69 30 -167 49 -253 49 -312 1 -520 -229 -520
-573 0 -120 19 -207 66 -298 66 -125 185 -215 319 -240 92 -17 236 -6 325 25
41 15 83 29 93 33 16 5 18 0 15 -52 l-3 -57 -48 -19 c-27 -11 -90 -26 -140
-35 -414 -72 -721 163 -753 578 -25 324 149 615 426 713 95 33 241 43 360 25z"/>
<path d="M615 1776 c-225 -56 -365 -267 -365 -551 0 -179 54 -329 155 -430 84
-83 189 -124 317 -125 187 0 338 85 421 238 93 171 91 474 -5 653 -95 180
-310 268 -523 215z"/>
</g>
</svg>
